# xmcd
# 
# Track frame offsets:
#     182
#     12267
#     23732
#     38062
#     48990
#     60420
#     74130
#     85892
#     99050
#     112032
#     125387
# 
# Disc length: 2258
# 
# Revision: 0
# Processed by: cddbd v1.5.2PL0 Copyright (c) Steve Scherf et al.
# Submitted via: fre:ac v1.0.31
# 
DISCID=8708d00b
DTITLE=Columbia Blues - Lowell Fulson Hung Down Head
DYEAR=0
DGENRE=Blues
TTITLE0=That's All Right
TTITLE1=I Still Love You, Baby
TTITLE2=Reconsider Baby
TTITLE3=I Want To Know
TTITLE4=Low Society
TTITLE5=Check Yourself
TTITLE6=It's All Your Fault Baby
TTITLE7=Do Me Right
TTITLE8=Trouble, Trouble
TTITLE9=Hung Down Head
TTITLE10=Tollin' Bells
EXTD=ChLD 19095\n\nSubmitted 6/19/97\n[Jmccoy@efn.org]
EXTT0=
EXTT1=
EXTT2=
EXTT3=
EXTT4=
EXTT5=
EXTT6=
EXTT7=
EXTT8=
EXTT9=
EXTT10=
PLAYORDER=
